<svg width="24" height="24" viewBox="0 0 24 24" fill="none" xmlns="http://www.w3.org/2000/svg">
<path d="M13.0003 12C13.0003 11.4517 12.563 11.004 12.0147 11C11.4625 10.996 11.0147 11.4477 11.0147 12C11.0147 12.5523 11.4625 13.004 12.0147 13C12.563 12.996 13.0003 12.5483 13.0003 12Z" fill="#101010"/>
<path d="M12.9853 6C12.9853 5.45169 12.548 5.00399 11.9997 5C11.4474 4.99597 10.9997 5.44771 10.9997 6C10.9997 6.55228 11.4474 7.00402 11.9997 7C12.548 6.996 12.9853 6.5483 12.9853 6Z" fill="#101010"/>
<path d="M12.9863 18C12.9863 17.4517 12.5491 17.004 12.0008 17C11.4485 16.996 11.0008 17.4477 11.0008 18C11.0008 18.5523 11.4485 19.004 12.0008 19C12.5491 18.996 12.9863 18.5483 12.9863 18Z" fill="#101010"/>
<path d="M13.0003 12C13.0003 11.4517 12.563 11.004 12.0147 11C11.4625 10.996 11.0147 11.4477 11.0147 12C11.0147 12.5523 11.4625 13.004 12.0147 13C12.563 12.996 13.0003 12.5483 13.0003 12Z" stroke="#101010" stroke-width="2" stroke-linejoin="round"/>
<path d="M12.9853 6C12.9853 5.45169 12.548 5.00399 11.9997 5C11.4474 4.99597 10.9997 5.44771 10.9997 6C10.9997 6.55228 11.4474 7.00402 11.9997 7C12.548 6.996 12.9853 6.5483 12.9853 6Z" stroke="#101010" stroke-width="2" stroke-linejoin="round"/>
<path d="M12.9863 18C12.9863 17.4517 12.5491 17.004 12.0008 17C11.4485 16.996 11.0008 17.4477 11.0008 18C11.0008 18.5523 11.4485 19.004 12.0008 19C12.5491 18.996 12.9863 18.5483 12.9863 18Z" stroke="#101010" stroke-width="2" stroke-linejoin="round"/>
</svg>
